<svg xmlns="http://www.w3.org/2000/svg" xmlns:xlink="http://www.w3.org/1999/xlink" width="23px" height="23px" viewBox="0 0 23 23" version="1.1">
    <!-- Generator: Sketch 51.1 (57501) - http://www.bohemiancoding.com/sketch -->
    <title>dutchx_logo_2018_blue</title>
    <desc>Created with Sketch.</desc>
    <defs>
        <polygon id="path-1" points="0.0134030418 0.0761739544 13.8757224 0.0761739544 13.8757224 19.1719344 0.0134030418 19.1719344"/>
    </defs>
    <g id="dutchx_logo_2018_blue" stroke="none" stroke-width="1" fill="none" fill-rule="evenodd">
        <g id="logo">




            <g id="Group-8" transform="translate(27.000000, 0.000000)" fill="#0070D2">


            </g>
            <path d="M12,10.0045714 L12,10.0052384 C14.6017591,12.5954647 16.9772485,15.6378858 18.4009863,19 C20.013473,17.2794814 21,14.9949423 21,12.4894191 L21,3 C18.6817073,4.26498909 14.0112614,7.05819172 12,10.0045714" id="Fill-9" fill="#0070D2"/>
            <path d="M4,21.0262567 C5.59486575,22.2674157 7.5630074,23 9.68623631,23 L11.3137637,23 C13.4369926,23 15.4049121,22.2674157 17,21.0262567 C15.7008665,17.280071 13.2154711,13.8716736 10.4998889,11 C7.78430669,13.8716736 5.29891128,17.280071 4,21.0262567" id="Fill-10" fill="#0070D2"/>
            <g id="Group-14">
                <mask id="mask-2" fill="white">
                    <use xlink:href="#path-1"/>
                </mask>
                <g id="Clip-12"/>
                <path d="M10.5298764,9.27311787 C10.5298764,9.27311787 12.7554515,6.71648764 13.8757224,5.76643536 C13.5804087,3.68561312 11.7303422,1.3400808 10.5298764,0.0761739544 C9.32963403,1.3400808 7.47934411,3.68561312 7.18403042,5.76643536 C8.30452471,6.71648764 10.5298764,9.27311787 10.5298764,9.27311787" id="Fill-11" fill="#0070D2" mask="url(#mask-2)"/>
                <path d="M8.78748099,10.1333698 C6.82348859,7.17286122 2.26377376,4.36626426 0,3.09520913 L0,12.6301331 C0,15.1476711 0.963455323,17.4431654 2.53764259,19.1719344 C3.92776141,15.7936977 6.24738118,12.7366873 8.78748099,10.1340399 L8.78748099,10.1333698" id="Fill-13" fill="#0070D2" mask="url(#mask-2)"/>
            </g>
        </g>
    </g>
</svg>